<svg width="28" height="32" viewBox="0 0 28 32" fill="none" xmlns="http://www.w3.org/2000/svg">
<path d="M27.4294 7.36394V31.9999H0.70166V0H20.0655L23.4954 3.42994L27.4294 7.36394Z" fill="#B12A27"/>
<path d="M12.8186 2.14258H0V7.87808H12.8186V2.14258Z" fill="white"/>
<path d="M4.59793 4.02342C4.54137 3.8868 4.466 3.7643 4.36237 3.66067C4.25875 3.55705 4.1315 3.47223 3.98543 3.41567C3.83468 3.35442 3.66506 3.32617 3.47662 3.32617H2.06787V6.96336H2.77931V5.5923H3.47662C3.66506 5.5923 3.83468 5.56405 3.98543 5.5028C4.1315 5.44623 4.25868 5.36148 4.36237 5.2578C4.46606 5.15417 4.54143 5.03636 4.59793 4.89505C4.64975 4.75842 4.67806 4.61236 4.67806 4.46161C4.678 4.30611 4.64975 4.16005 4.59793 4.02342ZM3.82993 4.81961C3.73568 4.90911 3.60381 4.95623 3.44362 4.95623H2.77931V3.95742H3.44362C3.60381 3.95742 3.73575 4.00455 3.82993 4.09873C3.91943 4.18823 3.96656 4.31073 3.96656 4.46148C3.96662 4.60761 3.9195 4.73011 3.82993 4.81961Z" fill="#B12A27"/>
<path d="M7.99941 4.73486C7.99472 4.60767 7.98997 4.49461 7.97585 4.39092C7.96172 4.28723 7.93816 4.19305 7.90516 4.10355C7.87216 4.01873 7.82978 3.93392 7.77322 3.85855C7.64603 3.6748 7.49054 3.53817 7.31622 3.45336C7.13716 3.36855 6.92516 3.32617 6.67547 3.32617H5.36572V6.96336H6.67547C6.92516 6.96336 7.13716 6.92098 7.31622 6.83617C7.49054 6.75136 7.64603 6.61473 7.77322 6.43098C7.82978 6.35561 7.87216 6.2708 7.90516 6.18598C7.93816 6.09648 7.96172 6.00223 7.97585 5.89861C7.98997 5.79498 7.99466 5.68186 7.99941 5.55467C8.0041 5.43217 8.0041 5.29555 8.0041 5.1448C8.0041 4.99405 8.0041 4.85736 7.99941 4.73486ZM7.28797 5.5123C7.28797 5.62067 7.27854 5.70548 7.2691 5.78086C7.25966 5.85155 7.24554 5.91748 7.22672 5.96461C7.20791 6.01642 7.1796 6.06355 7.14666 6.10592C7.02885 6.25667 6.84985 6.32736 6.61428 6.32736H6.07247V3.95748H6.61428C6.84985 3.95748 7.02891 4.03286 7.14666 4.18361C7.17966 4.22598 7.20791 4.26842 7.22672 4.32023C7.24554 4.37205 7.25972 4.4333 7.2691 4.50867C7.27854 4.57936 7.28797 4.66886 7.28797 4.77248C7.29266 4.87617 7.29266 5.00336 7.29266 5.14467C7.29272 5.28611 7.29272 5.40861 7.28797 5.5123Z" fill="#B12A27"/>
<path d="M11.0383 3.95748V3.32617H8.64014V6.96336H9.35157V5.48873H10.7886V4.85267H9.35157V3.95748H11.0383Z" fill="#B12A27"/>
<path d="M4.59793 4.02342C4.54137 3.8868 4.466 3.7643 4.36237 3.66067C4.25875 3.55705 4.1315 3.47223 3.98543 3.41567C3.83468 3.35442 3.66506 3.32617 3.47662 3.32617H2.06787V6.96336H2.77931V5.5923H3.47662C3.66506 5.5923 3.83468 5.56405 3.98543 5.5028C4.1315 5.44623 4.25868 5.36148 4.36237 5.2578C4.46606 5.15417 4.54143 5.03636 4.59793 4.89505C4.64975 4.75842 4.67806 4.61236 4.67806 4.46161C4.678 4.30611 4.64975 4.16005 4.59793 4.02342ZM3.82993 4.81961C3.73568 4.90911 3.60381 4.95623 3.44362 4.95623H2.77931V3.95742H3.44362C3.60381 3.95742 3.73575 4.00455 3.82993 4.09873C3.91943 4.18823 3.96656 4.31073 3.96656 4.46148C3.96662 4.60761 3.9195 4.73011 3.82993 4.81961Z" fill="#B12A27"/>
<path opacity="0.08" d="M27.4294 7.36369V31.9996H0.70166V26.2234L13.1963 13.7288L13.936 12.9891L14.3458 12.5792L15.029 11.8961L15.8394 11.0857L23.4954 3.42969L27.4294 7.36369Z" fill="white"/>
<path d="M27.4292 7.36475H20.0645V0L27.4292 7.36475Z" fill="#771B1B"/>
<path d="M23.6133 23.1663C23.4578 22.893 23.2458 22.6339 22.982 22.3983C22.7653 22.2005 22.5109 22.0167 22.2235 21.8471C21.0645 21.164 19.4108 20.8341 17.1634 20.8341H16.9373C16.8148 20.7211 16.6876 20.608 16.5557 20.4902C15.7029 19.7223 15.0245 18.8883 14.4968 17.9602C15.5333 15.6751 16.028 13.6398 15.9667 11.906C15.9573 11.6139 15.9149 11.3406 15.8395 11.0862C15.7265 10.6763 15.538 10.3135 15.2742 10.0167C15.2695 10.012 15.2695 10.012 15.2647 10.0073C14.8454 9.53614 14.2612 9.26758 13.6675 9.26758C13.0692 9.26758 12.518 9.5267 12.1175 10.0026C11.7217 10.4737 11.5097 11.1192 11.5003 11.8777C11.4862 13.0367 11.5803 14.1345 11.7783 15.1474C11.7971 15.2275 11.8113 15.3076 11.8301 15.3876C12.028 16.3064 12.3201 17.178 12.697 17.9883C12.2541 18.8882 11.8065 19.6656 11.4955 20.1933C11.26 20.5938 11.0008 21.0131 10.7323 21.4324C9.52147 21.6491 8.49434 21.913 7.59922 22.2428C6.3884 22.681 5.41784 23.2463 4.72053 23.92C4.26822 24.3535 3.96197 24.8152 3.81122 25.2958C3.65103 25.7905 3.66047 26.2851 3.83947 26.728C4.00434 27.1379 4.30115 27.4818 4.69697 27.7174C4.79122 27.774 4.89015 27.821 4.99378 27.8635C5.29534 27.986 5.62509 28.0519 5.96903 28.0519C6.76528 28.0519 7.58503 27.708 8.27759 27.0908C9.56853 25.9365 10.9018 24.0802 11.6887 22.907C12.3341 22.8081 13.0361 22.7233 13.8277 22.6385C14.7605 22.5442 15.585 22.4877 16.3342 22.4594C16.565 22.6667 16.7865 22.8646 16.9985 23.053C18.1763 24.1036 19.0715 24.8622 19.8818 25.3946C19.8818 25.3993 19.8865 25.3993 19.8913 25.3993C20.2117 25.6113 20.5179 25.7856 20.8242 25.927C21.1681 26.0871 21.5167 26.172 21.8748 26.172C22.3271 26.172 22.7511 26.0353 23.1045 25.7856C23.4625 25.5265 23.7217 25.1543 23.8395 24.735C23.9761 24.231 23.896 23.6704 23.6133 23.1663ZM13.1964 13.7293C13.1305 13.1451 13.1022 12.5373 13.1116 11.8966C13.121 11.2888 13.3425 10.8789 13.6675 10.8789C13.9125 10.8789 14.1717 11.1003 14.2894 11.5243C14.3224 11.6515 14.346 11.7976 14.3507 11.9625C14.3601 12.1603 14.3553 12.3676 14.346 12.5796C14.3177 13.178 14.214 13.814 14.035 14.4972C13.9267 14.9354 13.7853 15.3924 13.611 15.8682C13.4132 15.1993 13.2718 14.4878 13.1964 13.7293ZM5.33778 26.1297C5.25765 25.9318 5.34722 25.5502 5.83722 25.0791C6.58634 24.363 7.75947 23.7976 9.39434 23.3688C9.0834 23.7928 8.77715 24.1792 8.48034 24.5325C8.02803 25.079 7.59459 25.5408 7.20353 25.8894C6.86903 26.1909 6.50153 26.3794 6.1529 26.4265C6.09165 26.436 6.0304 26.4406 5.96915 26.4406C5.66284 26.4407 5.41315 26.3182 5.33778 26.1297ZM12.8666 21.1215L12.8996 21.0697L12.8478 21.0791C12.8572 21.0556 12.8713 21.032 12.8855 21.0132C13.0833 20.6787 13.333 20.25 13.6016 19.7553L13.6252 19.8071L13.6864 19.6799C13.8843 19.9626 14.101 20.2406 14.3272 20.5091C14.4355 20.6363 14.5486 20.7588 14.6617 20.8813L14.5863 20.886L14.6522 20.9472C14.459 20.9613 14.2565 20.9802 14.0538 20.999C13.9267 21.0131 13.7947 21.0226 13.6628 21.0367C13.3896 21.065 13.121 21.0933 12.8666 21.1215ZM20.7959 24.0614C20.2352 23.7033 19.6087 23.1992 18.836 22.5255C19.9337 22.6385 20.7959 22.8788 21.4084 23.2369C21.677 23.3924 21.8795 23.5526 22.0162 23.708C22.2423 23.9483 22.3224 24.165 22.28 24.3111C22.2423 24.4571 22.0774 24.5561 21.8748 24.5561C21.757 24.5561 21.6345 24.5278 21.5073 24.4666C21.2905 24.363 21.0644 24.2357 20.8242 24.0803C20.8147 24.0803 20.8053 24.0708 20.7959 24.0614Z" fill="white"/>
</svg>
