<svg width="50" height="50" viewBox="0 0 50 50" fill="none" xmlns="http://www.w3.org/2000/svg">
<g clip-path="url(#clip0_1066_5445)">
<path d="M25 1.5C25.4642 1.5 26.0634 1.73098 27.0674 3.04199C28.0723 4.35426 29.199 6.36698 30.8066 9.25098L31.626 10.7207C32.4606 12.2177 33.0699 13.3723 34.0811 14.1396C35.1012 14.914 36.3611 15.1671 37.9795 15.5332L39.5703 15.8936C42.6955 16.6007 44.8648 17.0952 46.3604 17.6846C47.8273 18.2627 48.2587 18.784 48.4238 19.3145C48.5939 19.8613 48.529 20.5788 47.6553 21.9668C46.7713 23.371 45.2883 25.1112 43.1602 27.5996L42.0752 28.8682C40.9652 30.1663 40.1084 31.124 39.7275 32.3486V32.3496C39.3493 33.5674 39.502 34.8553 39.6699 36.5889L39.833 38.2803C40.1545 41.5987 40.3768 43.9245 40.3018 45.6094C40.2268 47.2916 39.868 47.8926 39.4551 48.2061C39.0665 48.5009 38.4623 48.6724 36.9404 48.2363C35.7843 47.9051 34.3508 47.2985 32.4717 46.4473L30.4385 45.5156L28.9482 44.8301C27.4381 44.1347 26.2731 43.5625 25 43.5625C23.7269 43.5625 22.5619 44.1347 21.0518 44.8301H21.0508L19.5615 45.5156C16.6352 46.8629 14.601 47.7947 13.0596 48.2363C11.5375 48.6724 10.9334 48.5009 10.5449 48.2061C10.1319 47.8925 9.77321 47.2915 9.69824 45.6094C9.62319 43.9246 9.84447 41.5994 10.166 38.2812L10.3301 36.5889C10.4981 34.8552 10.6513 33.5668 10.2725 32.3486C9.89166 31.124 9.03503 30.1664 7.9248 28.8682L6.83984 27.5996C4.71176 25.1112 3.22869 23.371 2.34473 21.9668C1.47095 20.5787 1.40611 19.8613 1.57617 19.3145C1.74128 18.784 2.17269 18.2627 3.63965 17.6846C5.13521 17.0952 7.30443 16.6007 10.4297 15.8936L12.0205 15.5332C13.6388 15.1671 14.8987 14.914 15.9189 14.1396C16.93 13.3723 17.5393 12.218 18.374 10.7207L19.1934 9.25098C20.801 6.36707 21.9267 4.35427 22.9316 3.04199C23.9358 1.73066 24.5357 1.5 25 1.5Z" stroke="#FFC300" stroke-width="3"/>
</g>
<defs>
<clipPath id="clip0_1066_5445">
<rect width="50" height="50" fill="white"/>
</clipPath>
</defs>
</svg>
