<svg width="39" height="45" viewBox="0 0 39 45" fill="none" xmlns="http://www.w3.org/2000/svg">
<path d="M27.1097 11.6423C27.1097 12.0737 27.0803 12.5052 27.0263 12.9318C27.0509 12.7602 27.0754 12.5837 27.095 12.4121C26.9773 13.2652 26.7518 14.0938 26.4184 14.888C26.4821 14.7311 26.5508 14.5742 26.6145 14.4173C26.286 15.192 25.8594 15.9176 25.3446 16.5795L25.6535 16.1824C25.1534 16.8247 24.5749 17.3983 23.9375 17.8984L24.3346 17.5895C23.6678 18.1044 22.9422 18.5309 22.1724 18.8594C22.3293 18.7957 22.4862 18.727 22.6431 18.6633C21.8488 18.9967 21.0203 19.2222 20.1671 19.3399C20.3387 19.3154 20.5152 19.2909 20.6869 19.2712C19.8288 19.384 18.961 19.384 18.103 19.2712C18.2746 19.2958 18.4511 19.3203 18.6227 19.3399C17.7696 19.2222 16.941 18.9967 16.1467 18.6633C16.3036 18.727 16.4605 18.7957 16.6174 18.8594C15.8428 18.5309 15.1171 18.1044 14.4552 17.5895L14.8524 17.8984C14.2101 17.3983 13.6364 16.8198 13.1363 16.1824L13.4452 16.5795C12.9304 15.9127 12.5039 15.1871 12.1754 14.4173C12.2391 14.5742 12.3077 14.7311 12.3715 14.888C12.0381 14.0938 11.8125 13.2652 11.6949 12.4121C11.7194 12.5837 11.7439 12.7602 11.7635 12.9318C11.6508 12.0737 11.6508 11.2059 11.7635 10.3479C11.739 10.5195 11.7145 10.696 11.6949 10.8676C11.8125 10.0145 12.0381 9.18592 12.3715 8.39165C12.3077 8.54854 12.2391 8.70544 12.1754 8.86233C12.5039 8.08767 12.9304 7.36204 13.4452 6.70014L13.1363 7.09728C13.6364 6.45499 14.215 5.88135 14.8524 5.38125L14.4552 5.69014C15.122 5.17533 15.8477 4.74877 16.6174 4.42028C16.4605 4.48402 16.3036 4.55266 16.1467 4.6164C16.941 4.283 17.7696 4.05746 18.6227 3.93979C18.4511 3.96431 18.2746 3.98882 18.103 4.00843C18.961 3.89566 19.8288 3.89566 20.6869 4.00843C20.5152 3.98392 20.3387 3.9594 20.1671 3.93979C21.0203 4.05746 21.8488 4.283 22.6431 4.6164C22.4862 4.55266 22.3293 4.48402 22.1724 4.42028C22.9471 4.74877 23.6727 5.17533 24.3346 5.69014L23.9375 5.38125C24.5798 5.88135 25.1534 6.4599 25.6535 7.09728L25.3446 6.70014C25.8594 7.36694 26.286 8.09257 26.6145 8.86233C26.5508 8.70544 26.4821 8.54854 26.4184 8.39165C26.7518 9.18592 26.9773 10.0145 27.095 10.8676C27.0705 10.696 27.0459 10.5195 27.0263 10.3479C27.0803 10.7794 27.1097 11.2108 27.1097 11.6423C27.1146 12.667 28.0069 13.6525 29.0709 13.6035C30.1299 13.5544 31.0369 12.7405 31.032 11.6423C31.0222 9.3134 30.326 6.93058 28.963 5.02824C28.5855 4.50363 28.1834 3.98882 27.7324 3.52304C27.2813 3.05726 26.7763 2.65032 26.2615 2.25809C25.3495 1.56677 24.3297 1.05687 23.256 0.664635C18.8384 -0.963137 13.5041 0.478324 10.5133 4.1212C10.1112 4.61149 9.7239 5.1263 9.39541 5.67053C9.06201 6.22456 8.80215 6.81291 8.55701 7.41106C8.10103 8.51913 7.87059 9.69583 7.78234 10.8872C7.60093 13.2259 8.2138 15.6627 9.42973 17.6631C10.6064 19.5948 12.3813 21.2471 14.4552 22.1738C15.0485 22.4385 15.6515 22.6837 16.2742 22.8602C16.9165 23.0367 17.5735 23.1348 18.2305 23.2132C19.417 23.3554 20.6231 23.2573 21.7949 23.0269C26.3301 22.1297 30.1348 18.2318 30.8457 13.6525C30.9487 12.9857 31.0271 12.3189 31.032 11.6423C31.0369 10.6176 30.125 9.63209 29.0709 9.68112C28.0069 9.72525 27.1146 10.5391 27.1097 11.6423Z" fill="black"/>
<path d="M5.21865 20.4034C3.25258 21.9331 1.82092 24.012 0.908979 26.3114C0.251987 27.9686 0.0019369 29.7631 0.0019369 31.5379V38.6619C0.0019369 38.9561 -0.00786881 39.2503 0.0166458 39.5444C0.144122 40.9712 0.698153 42.3342 1.76209 43.3246C2.90447 44.3934 4.35574 44.9082 5.90506 44.9082H32.2779C32.6015 44.9082 32.93 44.918 33.2536 44.9033C34.6853 44.8396 36.0336 44.2807 37.0681 43.2805C38.1026 42.2803 38.6419 40.9565 38.7694 39.5444C38.8429 38.7158 38.7841 37.8627 38.7841 37.0341V32.8912C38.7841 31.9253 38.8184 30.9447 38.7204 29.9837C38.4605 27.4783 37.6172 25.0465 36.0875 23.0265C35.3619 22.0704 34.5725 21.1928 33.6262 20.4475C33.1997 20.1141 32.8074 19.8739 32.2387 19.8739C31.7582 19.8739 31.1846 20.0896 30.8512 20.4475C30.508 20.8201 30.253 21.3104 30.2775 21.8351C30.2971 22.3204 30.454 22.9088 30.8512 23.2226C31.6405 23.8403 32.3466 24.5562 32.9643 25.3456L32.6554 24.9484C33.283 25.7672 33.8076 26.6644 34.2097 27.6156C34.1459 27.4587 34.0773 27.3018 34.0136 27.1449C34.4107 28.101 34.6804 29.0963 34.8274 30.121C34.8029 29.9494 34.7784 29.7729 34.7588 29.6013C34.9304 30.8761 34.8716 32.1851 34.8716 33.4697V38.2501C34.8716 38.7256 34.8961 39.211 34.8421 39.6817C34.8667 39.5101 34.8912 39.3336 34.9108 39.162C34.8667 39.4905 34.7833 39.8043 34.6607 40.1132C34.7245 39.9563 34.7931 39.7994 34.8569 39.6425C34.7294 39.9416 34.5725 40.2161 34.3764 40.476L34.6853 40.0788C34.4744 40.3485 34.2342 40.5888 33.9645 40.7996L34.3617 40.4907C34.1018 40.6819 33.8272 40.8437 33.5282 40.9712C33.6851 40.9074 33.8419 40.8388 33.9988 40.7751C33.69 40.8976 33.3762 40.981 33.0477 41.0251C33.2193 41.0006 33.3958 40.9761 33.5674 40.9565C33.1997 41.0006 32.8221 40.9859 32.4495 40.9859H8.95959C7.88584 40.9859 6.8072 40.9908 5.73346 40.9859C5.56676 40.9859 5.40496 40.9761 5.23826 40.9565C5.40987 40.981 5.58637 41.0055 5.75797 41.0251C5.42948 40.981 5.11569 40.8976 4.80681 40.7751C4.9637 40.8388 5.12059 40.9074 5.27749 40.9712C4.97841 40.8437 4.70385 40.6868 4.44399 40.4907L4.84113 40.7996C4.57147 40.5888 4.33122 40.3485 4.1204 40.0788L4.42928 40.476C4.23807 40.2161 4.07627 39.9416 3.94879 39.6425C4.01253 39.7994 4.08117 39.9563 4.14491 40.1132C4.02234 39.8043 3.93899 39.4905 3.89486 39.162C3.91938 39.3336 3.94389 39.5101 3.9635 39.6817C3.91447 39.2797 3.93409 38.8727 3.93409 38.4707V31.7733C3.93409 31.0477 3.94879 30.322 4.04685 29.6013C4.02234 29.7729 3.99782 29.9494 3.97821 30.121C4.1204 29.0963 4.39496 28.101 4.7921 27.1449C4.72836 27.3018 4.65972 27.4587 4.59598 27.6156C4.99802 26.6644 5.52263 25.7672 6.15021 24.9484L5.84132 25.3456C6.4738 24.5317 7.19944 23.806 8.00842 23.1785C8.37614 22.8941 8.58206 22.2322 8.58206 21.7909C8.58206 21.3104 8.36633 20.7368 8.00842 20.4034C7.6358 20.0602 7.1455 19.8052 6.62089 19.8298C6.44929 19.8543 6.27278 19.8788 6.10118 19.8984C5.75307 19.9916 5.4638 20.1583 5.21865 20.4034Z" fill="black"/>
</svg>
