<svg width="117" height="82" viewBox="0 0 117 82" fill="none" xmlns="http://www.w3.org/2000/svg">
<path d="M115.024 17.0352C114.35 16.4596 113.522 16.0934 112.643 15.9813C111.763 15.8693 110.87 16.0163 110.073 16.4045L85.1441 28.5406L61.753 1.57098C61.3254 1.07784 60.7968 0.682358 60.203 0.411315C59.6093 0.140271 58.9642 0 58.3115 0C57.6588 0 57.0137 0.140271 56.4199 0.411315C55.8261 0.682358 55.2975 1.07784 54.8699 1.57098L31.4788 28.5403L6.54965 16.4042C5.7525 16.0162 4.85946 15.8692 3.98001 15.9813C3.10055 16.0934 2.2729 16.4596 1.59851 17.0351C0.924122 17.6106 0.432297 18.3703 0.183329 19.2212C-0.0656388 20.0721 -0.0609314 20.9771 0.196874 21.8254L17.5081 78.7703C17.7922 79.705 18.3692 80.5235 19.154 81.1052C19.9388 81.6869 20.8898 82.0009 21.8667 82.0009H94.7562C95.733 82.0009 96.684 81.687 97.4687 81.1053C98.2535 80.5236 98.8305 79.7051 99.1146 78.7705L116.426 21.8256C116.684 20.9774 116.689 20.0723 116.44 19.2213C116.191 18.3704 115.699 17.6106 115.024 17.0352ZM91.3794 72.8897H25.2431L11.9519 29.1679L30.6349 38.2633C31.5368 38.7024 32.5584 38.8315 33.5413 38.6306C34.5241 38.4297 35.4131 37.91 36.0704 37.1522L58.3115 11.5088L80.5528 37.1522C81.21 37.9101 82.099 38.4297 83.0818 38.6307C84.0646 38.8316 85.0862 38.7024 85.9881 38.2633L104.671 29.1679L91.3794 72.8897Z" fill="white"/>
</svg>
