<svg width="243" height="219" viewBox="0 0 243 219" fill="none" xmlns="http://www.w3.org/2000/svg">
<path d="M202.532 3.56327C201.402 2.43357 200.061 1.53745 198.585 0.926063C197.109 0.314677 195.527 0 193.929 0C190.703 0 187.608 1.28175 185.327 3.56327C183.045 5.84479 181.763 8.93919 181.763 12.1658C181.763 15.3923 183.045 18.4867 185.327 20.7682L201.078 36.3981H12.1864C8.97302 36.3981 5.89122 37.6746 3.619 39.9469C1.34678 42.2191 0.0702537 45.3009 0.0702537 48.5143C0.0702537 51.7277 1.34678 54.8095 3.619 57.0817C5.89122 59.3539 8.97302 60.6305 12.1864 60.6305H201.078L185.327 76.2603C184.191 77.3867 183.29 78.7267 182.674 80.2032C182.059 81.6797 181.743 83.2633 181.743 84.8628C181.743 86.4623 182.059 88.0459 182.674 89.5224C183.29 90.9989 184.191 92.3389 185.327 93.4653C186.453 94.6009 187.793 95.5023 189.269 96.1174C190.746 96.7325 192.33 97.0492 193.929 97.0492C195.529 97.0492 197.112 96.7325 198.589 96.1174C200.065 95.5023 201.405 94.6009 202.532 93.4653L238.88 57.1168C240.016 55.9904 240.917 54.6504 241.532 53.1739C242.147 51.6974 242.464 50.1138 242.464 48.5143C242.464 46.9148 242.147 45.3312 241.532 43.8547C240.917 42.3782 240.016 41.0382 238.88 39.9118L202.532 3.56327ZM230.278 157.56H41.3864L57.1374 141.93C59.419 139.648 60.7007 136.554 60.7007 133.328C60.7007 130.101 59.419 127.007 57.1374 124.725C54.8559 122.444 51.7615 121.162 48.535 121.162C45.3084 121.162 42.214 122.444 39.9325 124.725L3.58394 161.074C2.44831 162.2 1.54694 163.54 0.931818 165.016C0.316696 166.493 0 168.077 0 169.676C0 171.276 0.316696 172.859 0.931818 174.336C1.54694 175.812 2.44831 177.152 3.58394 178.279L39.9325 214.627C41.0588 215.763 42.3989 216.664 43.8754 217.279C45.3518 217.894 46.9355 218.211 48.535 218.211C50.1344 218.211 51.7181 217.894 53.1946 217.279C54.671 216.664 56.0111 215.763 57.1374 214.627C58.2731 213.501 59.1744 212.161 59.7896 210.684C60.4047 209.208 60.7214 207.624 60.7214 206.025C60.7214 204.425 60.4047 202.841 59.7896 201.365C59.1744 199.889 58.2731 198.548 57.1374 197.422L41.3864 181.792H230.278C233.491 181.792 236.573 180.516 238.845 178.243C241.117 175.971 242.394 172.889 242.394 169.676C242.394 166.463 241.117 163.381 238.845 161.109C236.573 158.836 233.491 157.56 230.278 157.56Z" fill="white"/>
</svg>
